<svg width="70" height="68" viewBox="0 0 70 68" fill="none" xmlns="http://www.w3.org/2000/svg">
<path d="M35 0L37.9187 8.98278H47.3637L39.7225 14.5344L42.6412 23.5172L35 17.9656L27.3588 23.5172L30.2775 14.5344L22.6363 8.98278H32.0813L35 0Z" fill="black" fill-opacity="0.3"/>
<path d="M58 18L60.6942 26.2918H69.4127L62.3593 31.4164L65.0534 39.7082L58 34.5836L50.9466 39.7082L53.6407 31.4164L46.5873 26.2918H55.3058L58 18Z" fill="black" fill-opacity="0.3"/>
<path d="M12 18L14.6942 26.2918H23.4127L16.3593 31.4164L19.0534 39.7082L12 34.5836L4.94658 39.7082L7.64074 31.4164L0.587322 26.2918H9.30583L12 18Z" fill="black" fill-opacity="0.3"/>
<path d="M49 44L51.6942 52.2918H60.4127L53.3593 57.4164L56.0534 65.7082L49 60.5836L41.9466 65.7082L44.6407 57.4164L37.5873 52.2918H46.3058L49 44Z" fill="black" fill-opacity="0.3"/>
<path d="M21 44L23.6942 52.2918H32.4127L25.3593 57.4164L28.0534 65.7082L21 60.5836L13.9466 65.7082L16.6407 57.4164L9.58732 52.2918H18.3058L21 44Z" fill="black" fill-opacity="0.3"/>
</svg>
