<svg width="60" height="60" viewBox="0 0 60 60" fill="none" xmlns="http://www.w3.org/2000/svg">
<path d="M30 0L32.5018 7.69952H40.5975L34.0479 12.4581L36.5496 20.1576L30 15.3991L23.4504 20.1576L25.9522 12.4581L19.4025 7.69952H27.4983L30 0Z" fill="black" fill-opacity="0.3"/>
<path d="M49.7143 16.2857L52.0236 23.393L59.4966 23.393L53.4508 27.7855L55.7601 34.8928L49.7143 30.5002L43.6685 34.8928L45.9778 27.7855L39.932 23.393L47.405 23.393L49.7143 16.2857Z" fill="black" fill-opacity="0.3"/>
<path d="M10.2857 16.2857L12.595 23.393L20.068 23.393L14.0222 27.7855L16.3315 34.8928L10.2857 30.5002L4.23992 34.8928L6.54921 27.7855L0.503419 23.393L7.97643 23.393L10.2857 16.2857Z" fill="black" fill-opacity="0.3"/>
<path d="M41.9999 39.4286L44.3092 46.5358L51.7822 46.5358L45.7365 50.9284L48.0457 58.0356L41.9999 53.6431L35.9542 58.0356L38.2634 50.9284L32.2177 46.5358L39.6907 46.5358L41.9999 39.4286Z" fill="black" fill-opacity="0.3"/>
<path d="M17.9999 39.4286L20.3092 46.5358L27.7822 46.5358L21.7365 50.9284L24.0457 58.0356L17.9999 53.6431L11.9542 58.0356L14.2634 50.9284L8.21765 46.5358L15.6907 46.5358L17.9999 39.4286Z" fill="black" fill-opacity="0.3"/>
</svg>
