<svg width="512" height="512" viewBox="0 0 512 512" fill="none" xmlns="http://www.w3.org/2000/svg">
<path d="M71 460L30 0H481L440 460L255 512" fill="#264DE4"/>
<path d="M256 472L405 431L440 37H256" fill="#2965F1"/>
<path d="M256 355H255L192 338L188 293H158H132L139 382L255 414H256V355Z" fill="#EBEBEB"/>
<path d="M256 208H181H122.5L129 265H256V208Z" fill="#EBEBEB"/>
<path d="M118.679 150H256V94H255H114L118.679 150Z" fill="#EBEBEB"/>
<path d="M255 208V265H325L318 338L255 355V414L371 382L372 372L385 223L392 150H335.5L330.5 208H255ZM255 94V129V150H392L393 138L396 109L397 94H255Z" fill="white"/>
</svg>
