<svg width="60" height="60" viewBox="0 0 60 60" fill="none" xmlns="http://www.w3.org/2000/svg">
<path fill-rule="evenodd" clip-rule="evenodd" d="M22.4841 9.59322L17.8652 9.59322L15.1727 14.4199C14.7207 15.2301 13.7709 15.6232 12.8786 15.3692L7.68225 13.8904L4.3161 17.2418L5.79711 22.4004C6.05437 23.2965 5.65842 24.2514 4.8426 24.7025L0 27.3804L1.97741e-07 31.9791L4.8426 34.6569C5.65843 35.108 6.05437 36.063 5.79712 36.959L4.17928 42.5942L7.20359 45.6053L12.8786 43.9902C13.7709 43.7363 14.7207 44.1293 15.1727 44.9395L18.207 50.379L22.1423 50.379L25.1766 44.9395C25.6286 44.1293 26.5784 43.7363 27.4707 43.9902L33.6241 45.7415L36.3068 43.0706L34.5522 36.959C34.2949 36.063 34.6909 35.108 35.5067 34.6569L40.9645 31.6389L40.9645 27.7206L35.5067 24.7025C34.6909 24.2514 34.2949 23.2965 34.5522 22.4004L36.1699 16.7655L33.1455 13.7542L27.4707 15.3692C26.5784 15.6232 25.6286 15.2301 25.1766 14.4199L22.4841 9.59322ZM29.2604 30.4717C29.2604 35.5667 25.112 39.6971 19.9946 39.6971C14.8773 39.6971 10.7289 35.5667 10.7289 30.4717C10.7289 25.3767 14.8773 21.2463 19.9946 21.2463C25.112 21.2463 29.2604 25.3767 29.2604 30.4717Z" fill="black" fill-opacity="0.3"/>
<path fill-rule="evenodd" clip-rule="evenodd" d="M42.4406 40.9194L44.7719 39.5793L48.5294 42.6173C48.8975 42.9149 49.424 42.9153 49.7914 42.6182L53.4321 39.6746L55.8574 41.0687L55.1179 45.6761C55.043 46.1432 55.3074 46.5993 55.7512 46.7682L59.9998 48.3854V51.2715L55.7478 52.89C55.3057 53.0583 55.0428 53.5124 55.1176 53.9786L55.8379 58.4666L53.3362 59.9046L49.7926 57.0396C49.4244 56.742 48.898 56.7416 48.5306 57.0387L44.8679 60L42.4601 58.6159L43.204 53.9807C43.279 53.5136 43.0145 53.0576 42.5707 52.8887L38.0383 51.1635V48.4934L42.5742 46.7669C43.0163 46.5986 43.2792 46.1445 43.2044 45.6783L42.4406 40.9194ZM52.5841 49.8378C52.5841 51.7149 51.0558 53.2366 49.1704 53.2366C47.2851 53.2366 45.7567 51.7149 45.7567 49.8378C45.7567 47.9606 47.2851 46.4389 49.1704 46.4389C51.0558 46.4389 52.5841 47.9606 52.5841 49.8378Z" fill="black" fill-opacity="0.3"/>
<path fill-rule="evenodd" clip-rule="evenodd" d="M42.4406 1.34003L44.7719 -6.10352e-05L48.5294 3.0379C48.8975 3.33553 49.424 3.33592 49.7914 3.03885L53.4321 0.0952797L55.8574 1.48938L55.1179 6.09675C55.043 6.56389 55.3074 7.01992 55.7512 7.18885L59.9998 8.80599V11.6922L55.7478 13.3106C55.3057 13.4789 55.0428 13.933 55.1176 14.3992L55.8379 18.8872L53.3362 20.3253L49.7926 17.4602C49.4244 17.1626 48.898 17.1622 48.5306 17.4593L44.8679 20.4206L42.4601 19.0366L43.204 14.4014C43.279 13.9343 43.0145 13.4782 42.5707 13.3093L38.0383 11.5841V8.91401L42.5742 7.18753C43.0163 7.01925 43.2792 6.56513 43.2044 6.09891L42.4406 1.34003ZM52.5841 10.2584C52.5841 12.1355 51.0558 13.6572 49.1704 13.6572C47.2851 13.6572 45.7567 12.1355 45.7567 10.2584C45.7567 8.38129 47.2851 6.85959 49.1704 6.85959C51.0558 6.85959 52.5841 8.38129 52.5841 10.2584Z" fill="black" fill-opacity="0.3"/>
</svg>
