<svg width="62" height="57" viewBox="0 0 62 57" fill="none" xmlns="http://www.w3.org/2000/svg">
<path fill-rule="evenodd" clip-rule="evenodd" d="M23.0524 7L18.3167 7L15.5365 12.0058C15.0849 12.8189 14.1325 13.2133 13.2383 12.9577L7.87644 11.4251L4.42517 14.8763L5.95783 20.2383C6.21343 21.1324 5.81894 22.0848 5.00593 22.5364L0 25.3167L1.86197e-07 30.0523L5.00593 32.8326C5.81894 33.2841 6.21343 34.2365 5.95783 35.1307L4.28488 40.9834L7.38566 44.0841L13.2384 42.4112C14.1325 42.1556 15.0849 42.5501 15.5365 43.3631L18.6672 49L22.7019 49L25.8327 43.3631C26.2842 42.5501 27.2366 42.1556 28.1308 42.4112L34.4741 44.2244L37.2245 41.474L35.4113 35.1307C35.1557 34.2365 35.5502 33.2841 36.3632 32.8326L42 29.7019L42 25.667L36.3632 22.5364C35.5502 22.0848 35.1557 21.1324 35.4113 20.2383L37.0842 14.3857L33.9833 11.2848L28.1308 12.9577C27.2366 13.2133 26.2842 12.8189 25.8327 12.0058L23.0524 7ZM30 28.5C30 33.7467 25.7467 38 20.5 38C15.2533 38 11 33.7467 11 28.5C11 23.2533 15.2533 19 20.5 19C25.7467 19 30 23.2533 30 28.5Z" fill="black" fill-opacity="0.3"/>
<path fill-rule="evenodd" clip-rule="evenodd" d="M43.5134 1.38002L45.9037 0L49.7733 3.14229C50.1406 3.44058 50.6667 3.44058 51.034 3.14229L54.7828 0.0980815L57.2693 1.53366L56.5074 6.30231C56.4327 6.76957 56.6958 7.2252 57.1378 7.39417L61.5167 9.06821V12.0402L57.1378 13.7142C56.6958 13.8832 56.4327 14.3388 56.5074 14.8061L57.2493 19.4496L54.6845 20.9304L51.034 17.9661C50.6667 17.6678 50.1406 17.6678 49.7733 17.9661L46.0021 21.0285L43.5334 19.6032L44.3 14.8061C44.3746 14.3388 44.1116 13.8832 43.6696 13.7142L39 11.9291V9.17933L43.6696 7.39417C44.1116 7.2252 44.3746 6.76957 44.3 6.30231L43.5134 1.38002ZM53.9133 10.5638C53.9133 12.4968 52.3463 14.0638 50.4133 14.0638C48.4803 14.0638 46.9133 12.4968 46.9133 10.5638C46.9133 8.63083 48.4803 7.06382 50.4133 7.06382C52.3463 7.06382 53.9133 8.63083 53.9133 10.5638Z" fill="black" fill-opacity="0.3"/>
<path fill-rule="evenodd" clip-rule="evenodd" d="M43.5134 36.38L45.9037 35L49.7733 38.1423C50.1406 38.4406 50.6667 38.4406 51.034 38.1423L54.7828 35.0981L57.2693 36.5337L56.5074 41.3023C56.4327 41.7696 56.6958 42.2252 57.1378 42.3942L61.5167 44.0682V47.0402L57.1378 48.7142C56.6958 48.8832 56.4327 49.3388 56.5074 49.8061L57.2493 54.4496L54.6845 55.9304L51.034 52.9661C50.6667 52.6678 50.1406 52.6678 49.7733 52.9661L46.0021 56.0285L43.5334 54.6032L44.3 49.8061C44.3746 49.3388 44.1116 48.8832 43.6696 48.7142L39 46.9291V44.1793L43.6696 42.3942C44.1116 42.2252 44.3746 41.7696 44.3 41.3023L43.5134 36.38ZM53.9133 45.5638C53.9133 47.4968 52.3463 49.0638 50.4133 49.0638C48.4803 49.0638 46.9133 47.4968 46.9133 45.5638C46.9133 43.6308 48.4803 42.0638 50.4133 42.0638C52.3463 42.0638 53.9133 43.6308 53.9133 45.5638Z" fill="black" fill-opacity="0.3"/>
</svg>
