<svg xmlns="http://www.w3.org/2000/svg" viewBox="0 0 21 21"><defs><style>.cls-1{fill:#fff;}</style></defs><title>Ресурс 1</title><g id="Слой_2" data-name="Слой 2"><g id="Слой_2-2" data-name="Слой 2"><path class="cls-1" d="M15.2,0H5.8A5.8,5.8,0,0,0,0,5.8v9.4A5.8,5.8,0,0,0,5.8,21h9.4A5.8,5.8,0,0,0,21,15.2V5.8A5.8,5.8,0,0,0,15.2,0Zm4,15.2a3.9,3.9,0,0,1-3.9,3.9H5.8a3.9,3.9,0,0,1-3.9-3.9V5.8A3.9,3.9,0,0,1,5.8,1.9h9.4a3.9,3.9,0,0,1,3.9,3.9l.1,9.4Z"/><path class="cls-1" d="M10.5,5.1a5.4,5.4,0,1,0,5.4,5.4A5.38,5.38,0,0,0,10.5,5.1Zm0,9A3.48,3.48,0,0,1,7,10.6,3.56,3.56,0,0,1,10.5,7,3.54,3.54,0,0,1,14,10.5,3.44,3.44,0,0,1,10.5,14.1Z"/><path class="cls-1" d="M16.2,3.5a1.28,1.28,0,0,0-1,.4,1.28,1.28,0,0,0-.4,1,1.28,1.28,0,0,0,.4,1,1.45,1.45,0,0,0,2,0,1.28,1.28,0,0,0,.4-1,1.28,1.28,0,0,0-.4-1A2.11,2.11,0,0,0,16.2,3.5Z"/></g></g></svg>