<svg width="60" height="61" viewBox="0 0 60 61" fill="none" xmlns="http://www.w3.org/2000/svg">
<g clip-path="url(#clip0)">
<path d="M60 30.2986C60 41.3361 54.0391 50.9826 45.1591 56.1916C44.9203 56.3325 44.678 56.4696 44.4342 56.6031C40.1522 58.959 35.2335 60.2986 30 60.2986C25.9519 60.2986 22.0922 59.4966 18.5694 58.0431C18.0037 57.8105 17.4465 57.5606 16.8993 57.2937C6.89508 52.4312 0 42.17 0 30.2986C0 13.73 13.4314 0.298584 30 0.298584C46.5686 0.298584 60 13.73 60 30.2986Z" fill="#F2F2F2"/>
<path d="M33.2865 5.58276C34.0281 8.41444 33.8259 9.83032 29.9154 13.0666C26.005 16.3028 25.3982 16.3702 25.3982 18.3928C25.3982 20.4154 28.3985 23.6179 29.848 24.5282C29.848 24.5282 29.612 23.9551 29.0727 23.0787C28.5333 22.2023 26.8815 20.7189 27.1848 18.4603C27.4882 16.2018 32.2583 13.3195 33.4887 11.1451C34.7191 8.97063 34.4327 7.13345 33.2865 5.58276Z" fill="#DE0A17"/>
<path d="M37.6016 12.7293C34.2305 13.8418 30.0504 15.5947 30.0504 18.9995C30.0504 22.4043 32.2078 21.7637 32.2078 23.5841C32.2078 25.4045 31.0279 25.9439 31.0279 25.9439C31.0279 25.9439 34.1293 24.7639 33.9945 22.4042C33.8597 20.0444 32.0056 20.3816 32.0056 18.1904C32.0056 15.4168 37.6016 12.7293 37.6016 12.7293Z" fill="#DE0A17"/>
<path d="M25.6679 24.7979C22.2968 24.7979 19.9708 26.0451 19.9708 26.753C19.9708 27.4609 24.1172 28.1352 28.6007 27.8318C33.0843 27.5284 35.444 27.1576 37.2307 26.0788C37.2307 26.0788 34.0619 26.8204 31.6347 26.8204C29.2075 26.8204 22.2709 27.2542 22.4317 26.2136C22.5925 25.173 26.612 24.7978 26.612 24.7978L25.6679 24.7979Z" fill="#DE0A17"/>
<path d="M24.4207 28.7419C22.634 29.3825 22.162 30.0229 23.2071 30.6972C24.2521 31.3713 26.3085 31.5736 29.1402 31.5736C31.9718 31.5736 35.9161 30.5959 35.9161 30.5959L34.6351 29.5845C34.6351 29.5845 32.8821 30.2251 29.5447 30.2251C26.2074 30.2251 22.8532 30.3095 24.4207 28.7419Z" fill="#DE0A17"/>
<path d="M25.2296 32.5513C23.4766 33.1581 23.1058 33.9671 24.6565 34.7087C26.2072 35.4503 29.1738 35.5851 31.3649 35.2818C33.556 34.9785 35.4101 34.3041 35.4101 34.3041C35.4101 34.3041 34.2134 33.849 33.6571 33.2927C33.6571 33.2927 31.0951 33.8321 28.6679 33.8321C26.2407 33.8321 24.2857 33.4951 25.2296 32.5513Z" fill="#DE0A17"/>
<path d="M38.3095 25C38.3095 25 39.1522 23.8538 41.2761 24.7303C43.3999 25.6068 43.3324 27.9666 41.4109 29.3824C39.4894 30.7982 37.1633 31.2702 37.1633 31.2702C37.1633 31.2702 41.4783 29.3824 41.3772 27.0564C41.2761 24.7304 39.287 24.7979 38.3095 25Z" fill="#DE0A17"/>
<path d="M21.0496 37.2704C27.691 38.4839 37.8041 37.2369 39.5902 36.7991C41.3772 36.3602 40.7229 35.4095 40.7229 35.4095C41.1597 35.718 41.3539 36.0578 41.175 36.428C40.197 38.4506 30.8929 38.7873 28.1623 38.7873C25.4317 38.7873 17.1389 38.6194 17.1389 37.1358C17.1389 35.6705 21.0517 34.7643 22.5121 35.1011C19.7652 35.8869 18.135 36.7374 21.0496 37.2704Z" fill="#DE0A17"/>
<path d="M21.8081 39.4366C21.8081 39.4366 24.1594 41.2316 35.8654 40.195C40.5428 39.8158 42.4895 38.6527 42.7424 37.3633C42.7424 37.3633 40.5933 38.5769 37.9386 39.0826C35.284 39.5884 30.91 40.3721 21.8081 39.4366Z" fill="#DE0A17"/>
<path d="M21.5819 42.0317H19.6383C19.6812 43.6628 19.7241 45.0958 19.7241 46.585C19.7241 47.7198 19.6812 49.0527 19.6812 50.3856C19.6812 51.266 19.48 52.0085 19.0724 52.6735C19.529 52.8961 19.9937 53.1044 20.4655 53.2986C21.1641 52.4528 21.5615 51.4039 21.539 50.0884C21.5103 49.0098 21.5103 47.6207 21.5103 46.5851C21.5103 45.0386 21.539 43.5351 21.5819 42.0317Z" fill="#DE0A17"/>
<path d="M34.6686 44.7833L33.4909 48.2724C33.2785 48.9108 33.1222 49.5205 32.9803 50.1303H32.8526C32.7535 49.5062 32.6116 48.9393 32.3705 48.2724L31.9875 47.1519C31.7036 46.3583 31.4625 45.5208 31.2501 44.7129L29.2932 44.9539L32.0162 52.0167L33.4205 51.8748L35.0792 47.5779C35.4061 46.7413 35.8309 45.7475 36.2283 44.8682L34.6686 44.7833Z" fill="#DE0A17"/>
<path d="M40.133 44.7118C39.3393 44.7118 38.4314 44.8824 37.2261 45.5493L37.5376 46.6554L37.651 46.7259C38.4314 46.1591 39.1269 45.8894 39.6651 45.8894C40.3883 45.8894 40.9276 46.3715 40.9276 47.1385V47.7615C37.8216 48.2303 37.0555 49.1945 37.0555 50.3149C37.0555 51.4926 37.8931 52.1299 38.8286 52.1299C39.6089 52.1299 40.2892 51.6621 40.9 51.1515L41.0267 51.1801C41.1534 51.8174 41.5742 52.0585 42.0398 52.0973C42.2431 51.9859 42.4453 51.8716 42.6445 51.7541V46.925C42.6445 45.436 41.7508 44.7118 40.133 44.7118ZM40.9277 50.2865C40.418 50.7267 39.9921 50.9534 39.609 50.9534C39.1269 50.9534 38.7296 50.6419 38.7296 50.0312C38.7296 49.3785 39.1688 48.8964 40.9276 48.6411V50.2865H40.9277Z" fill="#DE0A17"/>
<path d="M25.9932 44.7129C25.1996 44.7129 24.2916 44.8825 23.0854 45.5494L23.3979 46.6555L23.5113 46.727C24.2916 46.159 24.9861 45.8895 25.5254 45.8895C26.2485 45.8895 26.7878 46.3716 26.7878 47.1376V47.7616C23.6818 48.2304 22.9158 49.1946 22.9158 50.315C22.9158 51.4927 23.7523 52.13 24.6888 52.13C25.4682 52.13 26.1494 51.6622 26.7591 51.1516L26.8868 51.1802C27.0287 51.9033 27.5537 52.1168 28.092 52.1024C28.2248 52.1024 28.3637 52.0861 28.5037 52.0565V46.9251C28.5037 45.436 27.6099 44.7129 25.9932 44.7129ZM26.7878 50.2865C26.2771 50.7267 25.8512 50.9534 25.4682 50.9534C24.9861 50.9534 24.5887 50.6409 24.5887 50.0312C24.5887 49.3785 25.029 48.8964 26.7878 48.6411V50.2865V50.2865Z" fill="#DE0A17"/>
</g>
<defs>
<clipPath id="clip0">
<rect width="60" height="60" fill="white" transform="translate(0 0.298584)"/>
</clipPath>
</defs>
</svg>
