<svg width="452" height="512" viewBox="0 0 452 512" fill="none" xmlns="http://www.w3.org/2000/svg">
<path d="M41.0853 460.82L0 0H451.453L410.325 460.746L225.45 512L41.0853 460.82Z" fill="#EFC725"/>
<path d="M225.347 472.253L374.735 430.839L409.883 37.1104H225.347V472.253Z" fill="#FBDE34"/>
<path d="M225.26 354.839L225.015 354.911L162.071 337.91L158.044 292.838H127.462H101.312L109.23 381.577L224.999 413.717L225.26 413.643V354.839Z" fill="#EBEBEB"/>
<path d="M232.873 264.55V208.034H163.279L171.44 119.334L233.03 117.693L232.873 58.9218H120.342L116.162 100.582L102.879 249.374L101.501 264.55H116.731H232.873Z" fill="#EBEBEB"/>
<path d="M232.491 117.772L232.738 117.702L294.466 121.419L299.704 179.772H330.288H356.439L346.552 70.5765L232.752 58.896L232.491 58.9689V117.772Z" fill="white"/>
<path d="M350.612 117.945L345.769 58.9218H226.47V95.5783V117.798V117.945H350.612Z" fill="white"/>
<path d="M225.065 208.061V264.576H294.659L288.1 337.872L225.065 354.889V413.69L340.929 381.577L341.778 372.029L355.061 223.237L356.439 208.061H341.208H225.065Z" fill="white"/>
</svg>
