<svg id="Слой_1" xmlns="http://www.w3.org/2000/svg" xmlns:xlink="http://www.w3.org/1999/xlink" x="0px" y="0px"
	 viewBox="0 0 96 118" style="enable-background:new 0 0 96 118;" xml:space="preserve">
<style type="text/css">
	.st0{fill:#FFFFFF;}
	.st1{fill:none;stroke:#FFFFFF;stroke-width:2;stroke-linecap:round;stroke-miterlimit:10;}
	.st2{fill:none;}
</style>
	<g>
		<path class="st0" d="M61.2,66.2c-0.4-0.5-0.9-0.9-1.4-1.2c2.5-0.2,4.8-0.6,6.8-1.4c2.1-0.7,3.8-1.8,5.2-3c1.4-1.3,2.5-2.8,3.3-4.5
			c0.8-1.7,1.2-3.6,1.2-5.8c0-4.6-1.5-8.1-4.6-10.4c-3.1-2.3-7.5-3.4-13.4-3.4h-9.4v1.7h9.4c5.1,0,9.1,1,11.8,3
			c2.7,2,4.1,5.1,4.1,9.2c0,2-0.4,3.8-1.1,5.5c-0.8,1.6-1.8,3-3.3,4.1c-1.4,1.1-3.2,2-5.2,2.6c-2.1,0.6-4.3,0.9-6.9,0.9h-5.1v1.6h2.7
			c0.5,0,1,0,1.4,0.1c0.4,0.1,0.7,0.1,0.9,0.3c0.3,0.1,0.5,0.3,0.7,0.4c0.2,0.2,0.4,0.4,0.6,0.7L78.2,90c0.2,0.3,0.4,0.5,0.6,0.5
			c0.2,0.1,0.5,0.1,0.8,0.1h1.7L61.2,66.2z"/>
	</g>
	<circle class="st1" cx="48" cy="59.1" r="45.4"/>
	<polygon class="st0" points="92.3,103.8 89.7,103.8 77.9,89.7 79.4,88.4 "/>
	<line class="st2" x1="46.8" y1="105.8" x2="96" y2="105.8"/>
</svg>
