<svg width="208" height="60" viewBox="0 0 208 60" fill="none" xmlns="http://www.w3.org/2000/svg">
<path d="M78.8634 25.5441C78.8634 19.2037 77.0555 15.9486 73.4397 15.7704C72.001 15.7025 70.5963 15.9317 69.2298 16.4622C68.1391 16.8526 67.4049 17.2388 67.0187 17.6292V32.763C69.3316 34.2144 71.3857 34.8892 73.1766 34.7831C76.9664 34.5327 78.8634 31.4559 78.8634 25.5441ZM83.3238 25.8072C83.3238 29.0284 82.5684 31.702 81.0491 33.8282C79.3557 36.2345 77.0089 37.4737 74.0084 37.5416C71.7464 37.6138 69.4165 36.9051 67.0187 35.4197V49.1742L63.1398 47.7907V17.26C63.7764 16.4791 64.5954 15.8086 65.5885 15.2399C67.8972 13.8946 70.7024 13.2028 74.0042 13.1689L74.0593 13.2241C77.0768 13.1859 79.4024 14.4251 81.0363 16.9375C82.5599 19.2419 83.3238 22.1957 83.3238 25.8072Z" fill="#646464"/>
<path d="M107.03 34.834C107.03 39.1543 106.597 42.1463 105.732 43.8099C104.862 45.4735 103.206 46.8019 100.762 47.7907C98.7801 48.5716 96.6369 48.9959 94.3367 49.0681L93.6959 46.6236C96.0342 46.3053 97.6809 45.987 98.6358 45.6687C100.516 45.0321 101.806 44.056 102.515 42.7489C103.083 41.6837 103.363 39.6509 103.363 36.6419V35.6319C100.711 36.8372 97.9313 37.4355 95.0242 37.4355C93.1144 37.4355 91.4296 36.8372 89.9782 35.6319C88.3485 34.3205 87.5337 32.6569 87.5337 30.641V14.4972L91.4126 13.1689V29.4188C91.4126 31.1546 91.9728 32.4914 93.0932 33.4293C94.2136 34.3672 95.665 34.8171 97.4432 34.7831C99.2214 34.7449 101.127 34.0574 103.151 32.7121V13.7545H107.03V34.834Z" fill="#646464"/>
<path d="M122.172 37.3294C121.71 37.3676 121.285 37.3846 120.895 37.3846C118.701 37.3846 116.991 36.8626 115.768 35.8143C114.55 34.7661 113.939 33.3189 113.939 31.4728V16.1947H111.283V13.7545H113.939V7.27405L117.814 5.89478V13.7545H122.172V16.1947H117.814V31.3667C117.814 32.8224 118.204 33.8536 118.985 34.4563C119.656 34.9528 120.721 35.2372 122.172 35.3093V37.3294Z" fill="#646464"/>
<path d="M145.658 37.0111H141.779V22.0386C141.779 20.515 141.423 19.2037 140.714 18.1088C139.895 16.8695 138.758 16.2499 137.298 16.2499C135.52 16.2499 133.296 17.1878 130.626 19.0636V37.0111H126.747V1.22224L130.626 0V16.3008C133.105 14.4972 135.812 13.5932 138.753 13.5932C140.808 13.5932 142.471 14.285 143.744 15.6643C145.022 17.0435 145.658 18.7623 145.658 20.8164V37.0111Z" fill="#646464"/>
<path d="M166.275 24.933C166.275 22.497 165.813 20.4854 164.892 18.8939C163.797 16.9544 162.095 15.9317 159.795 15.8256C155.542 16.0717 153.42 19.1188 153.42 24.9585C153.42 27.6364 153.862 29.8729 154.753 31.6681C155.89 33.9555 157.596 35.0844 159.871 35.0462C164.14 35.0123 166.275 31.6426 166.275 24.933ZM170.523 24.9585C170.523 28.4257 169.636 31.3116 167.867 33.616C165.919 36.1963 163.228 37.4907 159.795 37.4907C156.391 37.4907 153.739 36.1963 151.825 33.616C150.089 31.3116 149.223 28.4257 149.223 24.9585C149.223 21.6991 150.161 18.9576 152.037 16.7253C154.019 14.3572 156.625 13.1689 159.846 13.1689C163.067 13.1689 165.69 14.3572 167.71 16.7253C169.585 18.9576 170.523 21.6991 170.523 24.9585Z" fill="#646464"/>
<path d="M192.761 37.0112H188.882V21.1899C188.882 19.4541 188.36 18.1003 187.316 17.1242C186.272 16.1524 184.88 15.6813 183.145 15.7195C181.303 15.7534 179.55 16.3561 177.887 17.5231V37.0112H174.008V17.0436C176.24 15.4182 178.294 14.3572 180.17 13.8606C181.939 13.3981 183.501 13.1689 184.847 13.1689C185.767 13.1689 186.633 13.258 187.448 13.4362C188.972 13.7885 190.211 14.4421 191.166 15.4012C192.231 16.4622 192.761 17.7353 192.761 19.2249V37.0112Z" fill="#646464"/>
<path d="M24.8285 1.3656C22.8328 1.37488 20.9269 1.54508 19.2499 1.84183C14.3098 2.71459 13.4128 4.54136 13.4128 7.91025V12.3595H25.087V13.8426H13.4128H9.03158C5.63872 13.8426 2.66784 15.8819 1.73859 19.7614C0.666703 24.2081 0.619159 26.983 1.73859 31.6261C2.56843 35.0822 4.55022 37.5448 7.94307 37.5448H11.9569V32.2111C11.9569 28.3579 15.2909 24.959 19.2499 24.959H30.9106C34.1565 24.959 36.7477 22.2864 36.7477 19.0266V7.91025C36.7477 4.74647 34.0787 2.36985 30.9106 1.84183C28.9051 1.50799 26.8243 1.35633 24.8285 1.3656ZM18.5152 4.94407C19.7211 4.94407 20.7058 5.9449 20.7058 7.17551C20.7058 8.40175 19.7211 9.39334 18.5152 9.39334C17.305 9.39334 16.3246 8.40174 16.3246 7.17551C16.3246 5.9449 17.305 4.94407 18.5152 4.94407Z" fill="url(#paint0_linear)"/>
<path d="M38.2036 13.8426V19.0266C38.2036 23.0457 34.7962 26.4284 30.9106 26.4284H19.25C16.0559 26.4284 13.4128 29.1621 13.4128 32.3608V43.4771C13.4128 46.6409 16.164 48.5018 19.25 49.4095C22.9454 50.4961 26.4891 50.6925 30.9106 49.4095C33.8496 48.5586 36.7477 46.846 36.7477 43.4771V39.0279H25.0871V37.5448H36.7477H42.5848C45.9777 37.5448 47.242 35.1782 48.4219 31.626C49.6408 27.9691 49.5889 24.4524 48.4219 19.7613C47.5834 16.3837 45.982 13.8426 42.5848 13.8426H38.2036ZM31.6453 41.9941C32.8555 41.9941 33.8359 42.9856 33.8359 44.2119C33.8359 45.4425 32.8555 46.4433 31.6453 46.4433C30.4395 46.4433 29.4547 45.4425 29.4547 44.2119C29.4547 42.9856 30.4395 41.9941 31.6453 41.9941Z" fill="url(#paint1_linear)"/>
<path d="M200.315 10.2963H200.995V6.03099H202.606V5.52258H198.704V6.03099H200.315V10.2963ZM203.209 10.2963H203.79V6.40073L205.051 10.2958H205.698L207.012 6.41394V10.2963H207.646V5.52258H206.808L205.372 9.61226L204.147 5.52258H203.209V10.2963Z" fill="#646464"/>
<path opacity="0.44382" d="M40.864 56.9664C40.864 57.3648 40.4593 57.7593 39.6731 58.1273C38.8869 58.4954 37.7345 58.8298 36.2818 59.1115C34.8291 59.3932 33.1044 59.6166 31.2064 59.7691C29.3083 59.9215 27.274 60 25.2195 60C23.1651 60 21.1307 59.9215 19.2326 59.7691C17.3346 59.6166 15.6099 59.3932 14.1572 59.1115C12.7045 58.8298 11.5521 58.4954 10.7659 58.1273C9.97973 57.7593 9.57507 57.3648 9.57507 56.9664C9.57507 56.568 9.97973 56.1736 10.7659 55.8055C11.5521 55.4375 12.7045 55.103 14.1572 54.8213C15.6099 54.5397 17.3346 54.3162 19.2326 54.1637C21.1307 54.0113 23.1651 53.9328 25.2195 53.9328C27.274 53.9328 29.3083 54.0113 31.2064 54.1637C33.1044 54.3162 34.8291 54.5397 36.2818 54.8213C37.7345 55.103 38.8869 55.4375 39.6731 55.8055C40.4593 56.1736 40.864 56.568 40.864 56.9664V56.9664Z" fill="url(#paint2_radial)"/>
<defs>
<linearGradient id="paint0_linear" x1="0.916748" y1="1.3652" x2="27.8362" y2="24.3043" gradientUnits="userSpaceOnUse">
<stop stop-color="#5A9FD4"/>
<stop offset="1" stop-color="#306998"/>
</linearGradient>
<linearGradient id="paint1_linear" x1="31.3648" y1="43.8378" x2="21.7071" y2="30.3045" gradientUnits="userSpaceOnUse">
<stop stop-color="#FFD43B"/>
<stop offset="1" stop-color="#FFE873"/>
</linearGradient>
<radialGradient id="paint2_radial" cx="0" cy="0" r="1" gradientUnits="userSpaceOnUse" gradientTransform="translate(25.2195 56.9664) rotate(-90) scale(3.03358 13.3339)">
<stop stop-color="#B8B8B8" stop-opacity="0.498039"/>
<stop offset="1" stop-color="#7F7F7F" stop-opacity="0"/>
</radialGradient>
</defs>
</svg>
