<svg width="71" height="42" viewBox="0 0 71 42" fill="none" xmlns="http://www.w3.org/2000/svg">
<path d="M21.5766 6L35 29.25L48.4234 6H21.5766Z" stroke="white" stroke-width="2"/>
<path d="M12.9164 1L35 39.25L57.0836 1H12.9164Z" stroke="white" stroke-width="2"/>
<path d="M55 1.00002H68.5C67.183 3.42695 65.9362 5.58636 64.7329 7.50006M46 20.5001C51.5286 20.628 55.7131 18.8526 59.9963 14.0001M49.5 14.0001L59.9963 14.0001M59.9963 14.0001C61.5398 12.2513 63.0962 10.103 64.7329 7.50006M54 7.50006L64.7329 7.50006" stroke="white" stroke-width="2"/>
<path d="M15.5 1.00002H2C3.31701 3.42695 4.56377 5.58636 5.7671 7.50006M24.5 20.5001C18.9714 20.628 14.7869 18.8526 10.5037 14.0001M21 14.0001H10.5037M10.5037 14.0001C8.96017 12.2513 7.4038 10.103 5.7671 7.50006M16.5 7.50006H5.7671" stroke="white" stroke-width="2"/>
</svg>
