<svg width="90" height="61" viewBox="0 0 90 61" fill="none" xmlns="http://www.w3.org/2000/svg">
<path d="M25.4092 9.27274L44.925 44.3957L64.4408 9.27274H25.4092Z" stroke="white" stroke-width="2"/>
<path d="M13.286 2L44.925 58.9411L76.564 2H13.286Z" stroke="white" stroke-width="2"/>
<path d="M72.2743 1.85715L88 1.85715C86.4659 5.37638 85.0136 8.50767 83.6118 11.2827M61.7905 30.1336C68.2305 30.3191 73.105 27.7446 78.0943 20.7081M65.8675 20.7081L78.0943 20.7081M78.0943 20.7081C79.8923 18.1723 81.7053 15.0571 83.6118 11.2827M71.1094 11.2827L83.6118 11.2827" stroke="white" stroke-width="2"/>
<path d="M17.7257 1.85715H2C3.53414 5.37638 4.98645 8.50767 6.38817 11.2827M28.2095 30.1336C21.7695 30.3191 16.895 27.7446 11.9057 20.7081M24.1325 20.7081H11.9057M11.9057 20.7081C10.1077 18.1723 8.29471 15.0571 6.38817 11.2827M18.8906 11.2827H6.38817" stroke="white" stroke-width="2"/>
</svg>
