<svg xmlns="http://www.w3.org/2000/svg" width="96" height="118"><g fill="none" fill-rule="evenodd"><path fill="#FFF" d="M13 20h71v70H13z"/><path fill="#ED1C24" fill-rule="nonzero" d="M84.88 11.07L60.64 4.637a49.617 49.617 0 0 0-25.28 0L11.12 11.07C5.81 12.45 2 17.273 2 22.902v42.16c0 12.292 6.233 23.78 16.507 30.558l26.55 17.346a6.125 6.125 0 0 0 6.81 0L77.724 95.62C87.882 88.842 94 77.47 94 65.292v-42.39c0-5.629-3.694-10.453-9.12-11.832zM26.588 76.78c-3.347 0-6.118-2.757-6.118-6.089 0-3.331 2.77-6.088 6.118-6.088 3.348 0 6.118 2.757 6.118 6.088 0 3.332-2.77 6.089-6.118 6.089zM41.94 58.4H26.587c-3.347 0-6.118-2.758-6.118-6.089 0-3.331 2.77-6.088 6.118-6.088H41.94c3.347 0 6.118 2.757 6.118 6.088s-2.77 6.088-6.118 6.088zm27.588-18.266h-42.94c-3.348 0-6.119-2.757-6.119-6.088 0-3.332 2.77-6.089 6.118-6.089h42.941c3.348 0 6.118 2.757 6.118 6.089 0 3.331-2.77 6.088-6.118 6.088z"/><ellipse cx="176.271" cy="177.137" stroke="#688696" stroke-dasharray="3.0032,3.0032" stroke-width="1.5" opacity=".6" rx="175.548" ry="176.046" transform="translate(-129 -119)"/><circle cx="109.319" cy="108.59" r="107.229" stroke="#688696" stroke-dasharray="3.0074,3.0074" stroke-width="1.5" transform="translate(-63 -50)"/><circle cx="276.272" cy="276.637" r="275.547" stroke="#688696" stroke-dasharray="3.0038,3.0038" stroke-width="1.5" opacity=".3" transform="translate(-230 -218)"/></g></svg>